<svg xmlns="http://www.w3.org/2000/svg" width="1180" height="1500" viewBox="0 0 1180 1500">
<rect x="0" y="0" width="1180" height="1500" fill="#eceef2" rx="0"/>
<rect x="20" y="20" width="760" height="42" fill="#e3e5e8" rx="10"/>
<circle cx="48" cy="41" r="6" fill="#f56b62"/>
<circle cx="70" cy="41" r="6" fill="#f5bd4f"/>
<circle cx="92" cy="41" r="6" fill="#53c22b"/>
<rect x="120" y="29" width="540" height="24" fill="#ffffff" rx="12" stroke="#d5d7da" stroke-width="1"/>
<text x="135" y="46" font-family="Noto Sans CJK SC" font-size="12" fill="#6e6e6e" font-weight="normal" text-anchor="start">https://你的用户名.github.io/careerfit-resume-demo/</text>
<rect x="20" y="62" width="760" height="1408" fill="#f7f7f5" rx="0"/>
<text x="50" y="110" font-family="Noto Sans CJK SC" font-size="26" fill="#1e1e1e" font-weight="bold" text-anchor="start">CareerFit Resume Demo</text>
<text x="50" y="138" font-family="Noto Sans CJK SC" font-size="13" fill="#6e6e6e" font-weight="normal" text-anchor="start">填写目标岗位 JD 和真实经历，浏览器本地生成简历优化 Prompt · 不上传任何数据</text>
<rect x="50" y="158" width="700" height="38" fill="#fff8e6" rx="10" stroke="#eadfc0" stroke-width="1"/>
<text x="66" y="182" font-family="Noto Sans CJK SC" font-size="12.5" fill="#7a5c14" font-weight="normal" text-anchor="start">已自动恢复你上次填写的草稿（仅保存在你自己的浏览器里）</text>
<rect x="560" y="165" width="170" height="24" fill="#fff8e6" rx="6" stroke="#cbb56a" stroke-width="1"/>
<text x="645" y="182" font-family="Noto Sans CJK SC" font-size="11.5" fill="#7a5c14" font-weight="normal" text-anchor="middle">清除草稿并重新填写</text>
<rect x="50" y="212" width="700" height="310" fill="#ffffff" rx="14" stroke="#e1e1dc" stroke-width="1"/>
<circle cx="80" cy="244" r="12" fill="#1e1e1e"/>
<text x="80" y="249" font-family="Noto Sans CJK SC" font-size="12" fill="#fff" font-weight="normal" text-anchor="middle">1</text>
<text x="102" y="249" font-family="Noto Sans CJK SC" font-size="14" fill="#1e1e1e" font-weight="bold" text-anchor="start">目标岗位方向：新媒体/内容运营（自动跳转对应行业示例）</text>
<circle cx="80" cy="286" r="12" fill="#1e1e1e"/>
<text x="80" y="291" font-family="Noto Sans CJK SC" font-size="12" fill="#fff" font-weight="normal" text-anchor="middle">2</text>
<text x="102" y="291" font-family="Noto Sans CJK SC" font-size="14" fill="#1e1e1e" font-weight="bold" text-anchor="start">目标岗位 JD *</text>
<rect x="80" y="302" width="640" height="84" fill="#fdfdfc" rx="8" stroke="#e1e1dc" stroke-width="1"/>
<text x="96" y="325" font-family="Noto Sans CJK SC" font-size="12.5" fill="#555" font-weight="normal" text-anchor="start">岗位职责：负责小红书/抖音账号内容策划与运营，进行数据分析并输出</text>
<text x="96" y="346" font-family="Noto Sans CJK SC" font-size="12.5" fill="#555" font-weight="normal" text-anchor="start">周报；要求熟练使用 Excel，会剪辑优先，具备良好沟通能力……</text>
<circle cx="80" cy="420" r="12" fill="#1e1e1e"/>
<text x="80" y="425" font-family="Noto Sans CJK SC" font-size="12" fill="#fff" font-weight="normal" text-anchor="middle">3</text>
<text x="102" y="425" font-family="Noto Sans CJK SC" font-size="14" fill="#1e1e1e" font-weight="bold" text-anchor="start">你的真实背景（按实际填写，没有的留空）</text>
<rect x="80" y="438" width="310" height="32" fill="#fdfdfc" rx="8" stroke="#e1e1dc" stroke-width="1"/>
<text x="94" y="459" font-family="Noto Sans CJK SC" font-size="12.5" fill="#555" font-weight="normal" text-anchor="start">学历/专业：本科新闻传播</text>
<rect x="410" y="438" width="310" height="32" fill="#fdfdfc" rx="8" stroke="#e1e1dc" stroke-width="1"/>
<text x="424" y="459" font-family="Noto Sans CJK SC" font-size="12.5" fill="#555" font-weight="normal" text-anchor="start">会使用的工具：Excel、Canva</text>
<rect x="80" y="478" width="640" height="32" fill="#fdfdfc" rx="8" stroke="#e1e1dc" stroke-width="1"/>
<text x="94" y="499" font-family="Noto Sans CJK SC" font-size="12.5" fill="#555" font-weight="normal" text-anchor="start">项目经历：运营过校园公众号，发布 40+ 篇内容……</text>
<rect x="50" y="542" width="140" height="40" fill="#1e1e1e" rx="10"/>
<text x="120" y="567" font-family="Noto Sans CJK SC" font-size="14" fill="#fff" font-weight="bold" text-anchor="middle">生成 Prompt</text>
<rect x="50" y="620" width="700" height="210" fill="#ffffff" rx="14" stroke="#e1e1dc" stroke-width="1"/>
<circle cx="80" cy="652" r="12" fill="#1c8a5c"/>
<text x="80" y="657" font-family="Noto Sans CJK SC" font-size="12" fill="#fff" font-weight="normal" text-anchor="middle">✓</text>
<text x="102" y="657" font-family="Noto Sans CJK SC" font-size="14" fill="#1e1e1e" font-weight="bold" text-anchor="start">JD 关键词覆盖自查（本地粗略对照，不是 ATS 分数）</text>
<text x="80" y="688" font-family="Noto Sans CJK SC" font-size="12.5" fill="#6e6e6e" font-weight="bold" text-anchor="start">你的背景里已覆盖</text>
<rect x="80" y="700" width="74.0" height="24" fill="#e2f4ea" rx="12" stroke="#bfe3cf" stroke-width="1"/>
<text x="91" y="717" font-family="Noto Sans CJK SC" font-size="12.5" fill="#17694a" font-weight="normal" text-anchor="start">内容策划</text>
<rect x="162.0" y="700" width="61.0" height="24" fill="#e2f4ea" rx="12" stroke="#bfe3cf" stroke-width="1"/>
<text x="173.0" y="717" font-family="Noto Sans CJK SC" font-size="12.5" fill="#17694a" font-weight="normal" text-anchor="start">公众号</text>
<rect x="231.0" y="700" width="59.5" height="24" fill="#e2f4ea" rx="12" stroke="#bfe3cf" stroke-width="1"/>
<text x="242.0" y="717" font-family="Noto Sans CJK SC" font-size="12.5" fill="#17694a" font-weight="normal" text-anchor="start">Excel</text>
<rect x="298.5" y="700" width="59.5" height="24" fill="#e2f4ea" rx="12" stroke="#bfe3cf" stroke-width="1"/>
<text x="309.5" y="717" font-family="Noto Sans CJK SC" font-size="12.5" fill="#17694a" font-weight="normal" text-anchor="start">Canva</text>
<rect x="366.0" y="700" width="74.0" height="24" fill="#e2f4ea" rx="12" stroke="#bfe3cf" stroke-width="1"/>
<text x="377.0" y="717" font-family="Noto Sans CJK SC" font-size="12.5" fill="#17694a" font-weight="normal" text-anchor="start">内容运营</text>
<text x="80" y="752" font-family="Noto Sans CJK SC" font-size="12.5" fill="#6e6e6e" font-weight="bold" text-anchor="start">JD 里出现、你的背景里没出现</text>
<rect x="80" y="764" width="74.0" height="24" fill="#fdecea" rx="12" stroke="#f3c4be" stroke-width="1"/>
<text x="91" y="781" font-family="Noto Sans CJK SC" font-size="12.5" fill="#a83a2c" font-weight="normal" text-anchor="start">数据分析</text>
<rect x="162.0" y="764" width="61.0" height="24" fill="#fdecea" rx="12" stroke="#f3c4be" stroke-width="1"/>
<text x="173.0" y="781" font-family="Noto Sans CJK SC" font-size="12.5" fill="#a83a2c" font-weight="normal" text-anchor="start">小红书</text>
<rect x="231.0" y="764" width="48.0" height="24" fill="#fdecea" rx="12" stroke="#f3c4be" stroke-width="1"/>
<text x="242.0" y="781" font-family="Noto Sans CJK SC" font-size="12.5" fill="#a83a2c" font-weight="normal" text-anchor="start">抖音</text>
<rect x="287.0" y="764" width="48.0" height="24" fill="#fdecea" rx="12" stroke="#f3c4be" stroke-width="1"/>
<text x="298.0" y="781" font-family="Noto Sans CJK SC" font-size="12.5" fill="#a83a2c" font-weight="normal" text-anchor="start">剪辑</text>
<rect x="343.0" y="764" width="48.0" height="24" fill="#fdecea" rx="12" stroke="#f3c4be" stroke-width="1"/>
<text x="354.0" y="781" font-family="Noto Sans CJK SC" font-size="12.5" fill="#a83a2c" font-weight="normal" text-anchor="start">周报</text>
<rect x="399.0" y="764" width="48.0" height="24" fill="#fdecea" rx="12" stroke="#f3c4be" stroke-width="1"/>
<text x="410.0" y="781" font-family="Noto Sans CJK SC" font-size="12.5" fill="#a83a2c" font-weight="normal" text-anchor="start">沟通</text>
<text x="80" y="812" font-family="Noto Sans CJK SC" font-size="11.5" fill="#6e6e6e" font-weight="normal" text-anchor="start">红色不代表你不行——可能只是没写出来。清单已附进 Prompt，让 AI 判断"真的缺"还是"没写"。</text>
<rect x="50" y="850" width="700" height="240" fill="#ffffff" rx="14" stroke="#e1e1dc" stroke-width="1"/>
<circle cx="80" cy="882" r="12" fill="#1c8a5c"/>
<text x="80" y="887" font-family="Noto Sans CJK SC" font-size="12" fill="#fff" font-weight="normal" text-anchor="middle">✓</text>
<text x="102" y="887" font-family="Noto Sans CJK SC" font-size="14" fill="#1e1e1e" font-weight="bold" text-anchor="start">生成结果</text>
<rect x="80" y="900" width="640" height="110" fill="#fbfbf9" rx="8" stroke="#e1e1dc" stroke-width="1"/>
<text x="96" y="922" font-family="Noto Sans CJK SC" font-size="11.5" fill="#444" font-weight="normal" text-anchor="start">你是一名严谨的求职简历优化顾问。</text>
<text x="96" y="940" font-family="Noto Sans CJK SC" font-size="11.5" fill="#444" font-weight="normal" text-anchor="start">重要原则：1. 不允许编造我没有提供过的经历。 2. 缺少证据请写"建议补充"……</text>
<text x="96" y="958" font-family="Noto Sans CJK SC" font-size="11.5" fill="#444" font-weight="normal" text-anchor="start">【目标岗位 JD】&lt;&lt;&lt; …… &gt;&gt;&gt;</text>
<text x="96" y="976" font-family="Noto Sans CJK SC" font-size="11.5" fill="#444" font-weight="normal" text-anchor="start">【关键词覆盖参考】以下 JD 关键词在我的背景描述中没有出现：数据分析、</text>
<text x="96" y="994" font-family="Noto Sans CJK SC" font-size="11.5" fill="#444" font-weight="normal" text-anchor="start">小红书、抖音、剪辑…… 请区分哪些是真的缺、哪些只是没写出来。</text>
<rect x="80" y="1028" width="120" height="34" fill="#1c8a5c" rx="8"/>
<text x="140" y="1050" font-family="Noto Sans CJK SC" font-size="13" fill="#fff" font-weight="normal" text-anchor="middle">复制 Prompt</text>
<rect x="214" y="1028" width="120" height="34" fill="#ffffff" rx="8" stroke="#e1e1dc" stroke-width="1"/>
<text x="274" y="1050" font-family="Noto Sans CJK SC" font-size="13" fill="#1e1e1e" font-weight="normal" text-anchor="middle">下载为 .txt</text>
<text x="360" y="1050" font-family="Noto Sans CJK SC" font-size="12.5" fill="#2e5cc8" font-weight="normal" text-anchor="start">→ 粘贴到 ChatGPT / Claude / 豆包 / Kimi</text>
<rect x="50" y="1110" width="700" height="100" fill="#fffdf7" rx="14" stroke="#e8dcc4" stroke-width="1"/>
<circle cx="80" cy="1142" r="12" fill="#8a5a1c"/>
<text x="80" y="1147" font-family="Noto Sans CJK SC" font-size="12" fill="#fff" font-weight="normal" text-anchor="middle">4</text>
<text x="102" y="1147" font-family="Noto Sans CJK SC" font-size="14" fill="#8a5a1c" font-weight="bold" text-anchor="start">对 AI 结果不满意？勾选问题，生成带修正要求的调整 Prompt</text>
<rect x="80" y="1166" width="13" height="13" fill="#ffffff" rx="3" stroke="#8a8a86" stroke-width="1"/>
<path d="M 82.5 1172.5 L 85.5 1176 L 90.5 1169" stroke="#1c8a5c" stroke-width="2" fill="none"/>
<text x="100" y="1178" font-family="Noto Sans CJK SC" font-size="12.5" fill="#6e6e6e" font-weight="normal" text-anchor="start">内容太笼统</text>
<rect x="191" y="1166" width="13" height="13" fill="#ffffff" rx="3" stroke="#8a8a86" stroke-width="1"/>
<path d="M 193.5 1172.5 L 196.5 1176 L 201.5 1169" stroke="#1c8a5c" stroke-width="2" fill="none"/>
<text x="211" y="1178" font-family="Noto Sans CJK SC" font-size="12.5" fill="#6e6e6e" font-weight="normal" text-anchor="start">疑似编造经历</text>
<rect x="315" y="1166" width="13" height="13" fill="#ffffff" rx="3" stroke="#8a8a86" stroke-width="1"/>
<text x="335" y="1178" font-family="Noto Sans CJK SC" font-size="12.5" fill="#6e6e6e" font-weight="normal" text-anchor="start">匹配度打分缺依据</text>
<rect x="465" y="1166" width="13" height="13" fill="#ffffff" rx="3" stroke="#8a8a86" stroke-width="1"/>
<text x="485" y="1178" font-family="Noto Sans CJK SC" font-size="12.5" fill="#6e6e6e" font-weight="normal" text-anchor="start">建议太空泛……</text>
<rect x="50" y="1230" width="700" height="150" fill="#fbfcff" rx="14" stroke="#cdd8f0" stroke-width="1"/>
<circle cx="80" cy="1262" r="12" fill="#2e5cc8"/>
<text x="80" y="1267" font-family="Noto Sans CJK SC" font-size="12" fill="#fff" font-weight="normal" text-anchor="middle">5</text>
<text x="102" y="1267" font-family="Noto Sans CJK SC" font-size="14" fill="#2e5cc8" font-weight="bold" text-anchor="start">进阶工具：打招呼语 / 面试预测（选用）</text>
<text x="80" y="1296" font-family="Noto Sans CJK SC" font-size="12.5" fill="#6e6e6e" font-weight="normal" text-anchor="start">基于上面已填的 JD 和背景一键拼装，复制去任意 AI 使用</text>
<rect x="80" y="1314" width="250" height="36" fill="#ffffff" rx="8" stroke="#e1e1dc" stroke-width="1"/>
<text x="205" y="1337" font-family="Noto Sans CJK SC" font-size="12.5" fill="#1e1e1e" font-weight="normal" text-anchor="middle">生成打招呼语 / 求职信 Prompt</text>
<rect x="346" y="1314" width="230" height="36" fill="#ffffff" rx="8" stroke="#e1e1dc" stroke-width="1"/>
<text x="461" y="1337" font-family="Noto Sans CJK SC" font-size="12.5" fill="#1e1e1e" font-weight="normal" text-anchor="middle">生成面试问题预测 Prompt</text>
<text x="50" y="1430" font-family="Noto Sans CJK SC" font-size="12.5" fill="#6e6e6e" font-weight="normal" text-anchor="start">纯前端单文件网页 · 不接模型 API · 数据不离开浏览器 · GitHub Pages 免费部署</text>
<text x="820" y="105" font-family="Noto Sans CJK SC" font-size="18" fill="#1e1e1e" font-weight="bold" text-anchor="start">v3 新增功能一览</text>
<text x="820" y="128" font-family="Noto Sans CJK SC" font-size="12" fill="#6e6e6e" font-weight="normal" text-anchor="start">借鉴 GitHub 头部开源项目，保持纯前端实现</text>
<rect x="820" y="158" width="330" height="84" fill="#ffffff" rx="12" stroke="#c9d2e8" stroke-width="1"/>
<rect x="820" y="158" width="4" height="84" fill="#2e5cc8" rx="2"/>
<text x="838" y="184" font-family="Noto Sans CJK SC" font-size="13.5" fill="#2e5cc8" font-weight="bold" text-anchor="start">草稿自动保存</text>
<text x="838" y="206" font-family="Noto Sans CJK SC" font-size="12" fill="#444" font-weight="normal" text-anchor="start">刷新/误关页面不丢内容，只存在</text>
<text x="838" y="225" font-family="Noto Sans CJK SC" font-size="12" fill="#444" font-weight="normal" text-anchor="start">你自己的浏览器里，可一键清除。</text>
<line x1="750" y1="177" x2="820" y2="200.0" stroke="#b0b8d0" stroke-width="1.5" stroke-dasharray="4,3"/>
<rect x="820" y="620" width="330" height="122" fill="#ffffff" rx="12" stroke="#c9d2e8" stroke-width="1"/>
<rect x="820" y="620" width="4" height="122" fill="#2e5cc8" rx="2"/>
<text x="838" y="646" font-family="Noto Sans CJK SC" font-size="13.5" fill="#2e5cc8" font-weight="bold" text-anchor="start">JD 关键词覆盖自查</text>
<text x="838" y="668" font-family="Noto Sans CJK SC" font-size="12" fill="#444" font-weight="normal" text-anchor="start">借鉴 Resume-Matcher 关键词高亮：</text>
<text x="838" y="687" font-family="Noto Sans CJK SC" font-size="12" fill="#444" font-weight="normal" text-anchor="start">本地对照 JD 与你的背景，绿色=已</text>
<text x="838" y="706" font-family="Noto Sans CJK SC" font-size="12" fill="#444" font-weight="normal" text-anchor="start">覆盖，红色=未出现，并附进 Prompt。</text>
<text x="838" y="725" font-family="Noto Sans CJK SC" font-size="12" fill="#444" font-weight="normal" text-anchor="start">明确标注：不是 ATS 分数。</text>
<line x1="750" y1="725" x2="820" y2="681.0" stroke="#b0b8d0" stroke-width="1.5" stroke-dasharray="4,3"/>
<rect x="820" y="880" width="330" height="104" fill="#ffffff" rx="12" stroke="#c9d2e8" stroke-width="1"/>
<rect x="820" y="880" width="4" height="104" fill="#2e5cc8" rx="2"/>
<text x="838" y="906" font-family="Noto Sans CJK SC" font-size="13.5" fill="#2e5cc8" font-weight="bold" text-anchor="start">下载为 .txt</text>
<text x="838" y="928" font-family="Noto Sans CJK SC" font-size="12" fill="#444" font-weight="normal" text-anchor="start">生成的 Prompt 可保存成文件，</text>
<text x="838" y="947" font-family="Noto Sans CJK SC" font-size="12" fill="#444" font-weight="normal" text-anchor="start">换设备、换 AI 工具都能直接用。</text>
<line x1="750" y1="1045" x2="820" y2="932.0" stroke="#b0b8d0" stroke-width="1.5" stroke-dasharray="4,3"/>
<rect x="820" y="1230" width="330" height="140" fill="#ffffff" rx="12" stroke="#c9d2e8" stroke-width="1"/>
<rect x="820" y="1230" width="4" height="140" fill="#2e5cc8" rx="2"/>
<text x="838" y="1256" font-family="Noto Sans CJK SC" font-size="13.5" fill="#2e5cc8" font-weight="bold" text-anchor="start">打招呼语 + 面试预测</text>
<text x="838" y="1278" font-family="Noto Sans CJK SC" font-size="12" fill="#444" font-weight="normal" text-anchor="start">借鉴 JadeAI 模拟面试 / Cover Letter：</text>
<text x="838" y="1297" font-family="Noto Sans CJK SC" font-size="12" fill="#444" font-weight="normal" text-anchor="start">Boss直聘风格打招呼语（附真实性</text>
<text x="838" y="1316" font-family="Noto Sans CJK SC" font-size="12" fill="#444" font-weight="normal" text-anchor="start">检查）、高概率面试题预测，并可</text>
<text x="838" y="1335" font-family="Noto Sans CJK SC" font-size="12" fill="#444" font-weight="normal" text-anchor="start">让 AI 一次一题模拟面试。</text>
<line x1="750" y1="1305" x2="820" y2="1300.0" stroke="#b0b8d0" stroke-width="1.5" stroke-dasharray="4,3"/>
</svg>